<?xml version="1.0" encoding="UTF-8"?>
<svg width="252px" height="56px" viewBox="0 0 252 56" version="1.1" xmlns="http://www.w3.org/2000/svg" xmlns:xlink="http://www.w3.org/1999/xlink">
    <!-- Generator: Sketch 59.1 (86144) - https://sketch.com -->
    <title>logo / blue</title>
    <desc>Created with Sketch.</desc>
    <defs>
        <path d="M176.756322,43.982161 L174.771678,45.4998568 L175.542527,47.642346 C176.284914,49.7032108 178.879261,54.4507269 186.933081,54.028902 C197.771655,53.4611066 202.485132,44.7813246 203.460819,40.2822562 L204.157709,37.1312798 C204.486211,37.6591567 204.832151,38.1216945 205.177489,38.5180987 C207.313055,40.9707999 210.451966,42.2189965 214.016588,42.0321146 C216.779295,41.8877329 219.442389,41.0984993 221.832299,39.7716574 L221.417612,41.6484207 L236.514691,40.853825 L241.595354,18.0421144 C241.656885,17.8542395 241.807006,17.6711309 242.021064,17.6598108 C242.262781,17.6471004 242.409094,17.8584101 242.448578,17.9231534 L245.262595,22.5801082 L252,10.5700146 L250.552706,8.91329933 C248.513946,6.57955905 245.601319,5.31368716 242.560217,5.43979771 L242.510711,5.4423795 C241.383902,5.50652707 240.415431,5.72558209 239.588663,6.0306306 L239.465199,5.86559459 L229.206866,6.40081968 L228.487528,9.65764948 C227.296582,8.21859901 225.12073,6.64172063 221.351871,6.82383618 L221.256668,6.82979416 C216.734599,7.1834995 212.897996,8.71330985 209.866114,11.3002642 L210.734771,7.36779964 L197.921776,8.04264004 C197.869664,8.04343443 197.81635,8.04581762 197.761633,8.04839942 C197.553789,8.05932238 197.346746,8.07262853 197.140906,8.08851647 L195.694413,8.17232537 L195.676976,8.24382112 C190.559835,8.94686261 186.402947,11.2299601 183.3877,14.9191405 C182.992054,13.8254542 182.441076,12.9692927 181.893706,12.3266254 C180.10869,10.2300126 177.353198,9.1188496 174.335145,9.27713324 C172.627694,9.36650292 171.261974,9.56549941 169.974822,9.95733582 L169.90367,9.51009021 L162.145482,9.91662296 L162.145482,9.91562996 L159.180944,10.0703388 L161.16218,8.55562201 L160.391532,6.41273564 C159.649346,4.35167218 157.054598,-0.395446706 149.00158,0.0263781918 C139.011019,0.549885927 134.227391,7.96280312 132.775086,12.6431926 C131.21475,11.802919 129.453985,11.3828815 127.64652,11.4581507 L127.597415,11.4603353 C126.470606,11.5242842 125.502136,11.7433393 124.675969,12.0489836 L124.552305,11.8835504 L114.294172,12.4187754 L113.518313,15.9282235 C113.507891,15.914123 113.49827,15.8990294 113.487647,15.8849289 C112.334181,14.3974202 110.132674,12.6644428 106.191848,12.8545023 L106.097046,12.8604603 C102.632237,13.1317469 99.5718942,14.0945563 96.9657219,15.6918904 L97.4499573,13.3013507 L93.2203139,13.5233847 C93.7498461,11.2748435 94.094984,9.82347989 94.0955853,9.8212953 L95.0634547,5.75418039 L66.3743146,7.25658404 L64.6863055,15.0188374 L54.9214272,15.5326138 L54.9224294,15.5294362 L42.1152464,16.203085 C42.5060821,11.8047064 40.7403067,8.77785462 39.1086179,6.97079965 C36.4803986,4.06092282 32.3455579,2.30907846 28.5738937,2.50628756 C24.2302065,2.73408095 14.8701939,3.33504241 14.7721843,3.34119898 L11.6012045,3.5340389 L0,56 L22.342771,54.829853 C22.3870657,54.82886 22.5263635,54.8225048 22.5263635,54.8225048 C23.5818202,54.7672942 31.1816694,54.1105263 35.8923412,46.8757527 C36.1266422,47.2540844 36.3745723,47.5877312 36.6219011,47.8780833 C38.4069176,49.9742989 41.1622087,51.0856605 44.1810633,50.9277741 C45.8881132,50.838603 47.2540336,50.6392093 48.5405844,50.2473729 L48.6129391,50.6946185 L60.029148,50.0968346 L60.8629307,46.2553285 C61.0685704,46.5756692 61.2936517,46.8803205 61.5413813,47.1633245 C63.0782673,48.9249002 65.3206618,49.8217746 67.8550806,49.6893089 C70.5805078,49.5461188 73.0167167,48.6381228 75.2358614,46.9273885 C76.7464913,48.3851073 78.8095022,49.1153569 81.1140295,48.9946086 C84.549575,48.8150748 87.5241349,47.418326 90.1856255,44.7314761 C92.3173834,47.0616416 95.3833387,48.245492 98.8565648,48.0631779 C101.727704,47.9126396 104.490811,47.0672024 106.952074,45.6440399 L106.504918,47.6657807 L176.756322,43.982161 Z" id="path-1"></path>
        <filter x="-1.9%" y="-8.0%" width="103.8%" height="116.2%" filterUnits="objectBoundingBox" id="filter-2">
            <feMorphology radius="0.5" operator="dilate" in="SourceAlpha" result="shadowSpreadOuter1"></feMorphology>
            <feOffset dx="0" dy="0" in="shadowSpreadOuter1" result="shadowOffsetOuter1"></feOffset>
            <feGaussianBlur stdDeviation="1" in="shadowOffsetOuter1" result="shadowBlurOuter1"></feGaussianBlur>
            <feColorMatrix values="0 0 0 0 0.945098039   0 0 0 0 0.525490196   0 0 0 0 0.71372549  0 0 0 0.31176404 0" type="matrix" in="shadowBlurOuter1"></feColorMatrix>
        </filter>
    </defs>
    <g id="logo-/-blue" stroke="none" stroke-width="1" fill="none" fill-rule="evenodd">
        <g id="Fill-1">
            <use fill="black" fill-opacity="1" filter="url(#filter-2)" xlink:href="#path-1"></use>
            <use fill="#FFFFFF" fill-rule="evenodd" xlink:href="#path-1"></use>
        </g>
        <path d="M110.202845,31.4601138 C110.201866,31.4629119 110.198341,31.4745037 110.198341,31.4745037 L98.8837562,32.0842739 C98.8837562,32.0842739 97.0950887,36.7032187 98.6070552,38.8237242 C98.6526825,38.8511049 98.6959598,38.8802844 98.7447203,38.904867 C98.8150216,38.9416411 98.8868894,38.9706207 98.9589531,39 C97.8037802,36.7697718 99.4289336,32.5755277 99.4289336,32.5755277 L110.743518,31.9657575 C110.743518,31.9657575 110.747043,31.9539658 110.748022,31.9511677 C110.881183,31.5256676 114.039648,21.2429145 109.783387,18 C113.210133,21.6796068 110.32974,31.0547995 110.202845,31.4601138" id="Fill-4" fill="#7DA9DC"></path>
        <path d="M100,26 L100.835581,25.9668489 C102.055374,23.2809296 103.604099,21.9673616 104.997495,21.5490431 C105.005262,21.343985 104.995211,21.1584074 104.963917,21 C103.3574,21.1980519 101.42035,22.5873206 100,26" id="Fill-6" fill="#7DA9DC"></path>
        <path d="M130,22.4033821 C130.206226,22.5861676 130.39588,22.7826335 130.552851,23 L134,17.8812464 C133.66074,17.5576667 133.285575,17.2639179 132.88348,17 C133.048046,17.133194 133.20778,17.2698081 133.359227,17.4144024 L130,22.4033821 Z" id="Fill-8" fill="#7DA9DC"></path>
        <path d="M122.745976,16.2376512 L122.684476,16.2411512 L122.693976,16.2971512 C122.711976,16.2766512 122.726476,16.2586512 122.745976,16.2376512" id="Fill-10" fill="#040201"></path>
        <path d="M39.287478,17.3950444 C38.1197762,24.4833139 32.1124212,27.9484358 31,28.5341553 C31.1850697,28.6660777 31.3895677,28.8192844 31.609288,29 C32.8314691,28.3478174 38.6924107,24.8845026 39.8450906,17.8883981 C40.5132644,13.8289225 38.9399715,10.8736195 36.6620517,9 C38.6307208,10.8832577 39.8999706,13.6763182 39.287478,17.3950444" id="Fill-12" fill="#7DA9DC"></path>
        <path d="M76.6106815,16.9675256 C77.410178,13.5088252 78,11 78,11 L77.3880597,11.0326548 C77.1688545,11.9670145 76.6452077,14.2066633 76,17 L76.6106815,16.9675256 Z" id="Fill-14" fill="#7DA9DC"></path>
        <path d="M73.3488843,23.1967211 C71.7853527,30.1655718 70.118889,37.8085879 70.0115484,39.2038036 C69.9858633,39.5384444 70.0046479,39.7963112 70.0518011,40 C70.206295,40.0024093 70.3722896,39.9676364 70.5356008,39.9115699 C70.5369425,39.8383123 70.539051,39.76525 70.5451848,39.6837875 C70.6525254,38.2883764 72.318414,30.6455557 73.8825207,23.676705 L76.8909342,23.5147569 L77,23 L73.3488843,23.1967211 Z" id="Fill-16" fill="#7DA9DC"></path>
        <path d="M88.6106815,15.9678816 C89.410178,12.5086611 90,10 90,10 L89.3877001,10.0324792 C89.1688545,10.9671599 88.6452077,13.2071454 88,16 L88.6106815,15.9678816 Z" id="Fill-18" fill="#7DA9DC"></path>
        <path d="M46.2121031,42.8943771 C46.3453775,42.948644 46.4948953,42.9848219 46.6620265,43 C46.5678929,42.5012023 46.6058595,41.8545742 46.7677066,41.0711354 L51,20 L50.2606305,20.0415838 L46.1545662,40.4841801 C45.9336164,41.5555867 45.9467286,42.3664708 46.2121031,42.8943771" id="Fill-20" fill="#7DA9DC"></path>
        <path d="M183,44.2802379 C183.151326,44.8641299 183.37885,45.3989236 183.704113,45.8291002 C183.797579,45.8921726 183.89603,45.9499575 184,46 C183.661919,45.4308375 183.455403,44.7313757 183.341463,44 L183,44.2802379 Z" id="Fill-22" fill="#7DA9DC"></path>
        <path d="M129.042118,21.6502016 L128.999118,21.7267016 C129.125618,21.8077016 129.254618,21.8867016 129.377118,21.9732016 C129.270618,21.8602016 129.153118,21.7587016 129.042118,21.6502016" id="Fill-24" fill="#040201"></path>
        <path d="M225.203164,25.4598985 C225.202381,25.4630964 225.198856,25.4744887 225.198856,25.4744887 L213.883782,26.0848759 C213.883782,26.0848759 212.094903,30.703353 213.607274,32.8237192 C213.653098,32.8513005 213.695788,32.8804808 213.744157,32.9058637 C213.814851,32.9416395 213.886524,32.9710196 213.958784,33 C212.804188,30.7701078 214.429356,26.5759439 214.429356,26.5759439 L225.743451,25.9655566 C225.743451,25.9655566 225.746976,25.9541643 225.747955,25.9511664 C225.881313,25.5262537 229.039414,15.2428072 224.783703,12 C228.210087,15.6797118 225.330256,25.0545726 225.203164,25.4598985" id="Fill-26" fill="#7DA9DC"></path>
        <path d="M187.850306,40.4990219 C185.954284,40.6067882 184.294002,40.0919266 183,39 C184.354223,40.4221591 186.204162,41.1089714 188.360894,40.9859514 C188.528519,40.9758483 188.693023,40.9576231 188.857344,40.9405865 C188.914443,40.7280253 188.961444,40.537057 189,40.372436 C188.621787,40.4302812 188.240086,40.4764385 187.850306,40.4990219" id="Fill-28" fill="#7DA9DC"></path>
        <path d="M215,20 L215.835645,19.9671918 C217.05439,17.2811934 218.603691,15.9674994 219.997651,15.5490243 C220.004962,15.3441441 219.995595,15.1587437 219.96407,15 C218.357429,15.1982161 216.420003,16.5874372 215,20" id="Fill-30" fill="#7DA9DC"></path>
        <path d="M148.446683,8.43018539 C149.055593,8.40302222 149.567678,8.48641489 150,8.6514701 C149.931955,8.5602918 149.858771,8.47257378 149.780858,8.38918111 C149.281724,8.11858746 148.658219,7.96996857 147.874365,8.00509038 C144.689613,8.14661571 143.375995,11.6958217 143,13 L143.715397,12.9683385 C144.232211,11.4406262 145.58242,8.55752358 148.446683,8.43018539" id="Fill-32" fill="#7DA9DC"></path>
        <path d="M152,10.2772256 C152.06995,10.5126456 152.127578,10.7544879 152.171098,11 L157,7.56099575 C156.701323,6.78831157 156.122849,5.80075843 155.00783,5 C155.768928,5.70057188 156.202138,6.47710939 156.446962,7.11015627 L152,10.2772256 Z" id="Fill-34" fill="#7DA9DC"></path>
        <path d="M191.534159,19.2721954 C190.540752,21.3889319 189.837615,23.6614386 189.41412,25.9885045 C189.049998,27.9897969 188.827348,30.1375688 189.170761,32.1617919 C189.259272,32.685441 189.428413,33.3834422 189.746355,33.9061029 C189.842746,33.9521619 189.945733,33.9845811 190.056784,34 C189.865286,33.5502825 189.748188,33.0475872 189.680385,32.6474869 C189.33807,30.6232637 189.559805,28.4754919 189.923926,26.4741994 C190.347238,24.1471335 191.051291,21.8746268 192.043783,19.7578904 C192.624691,18.5200305 193.5404,16.8646746 194.890415,16.5410757 L195,16.0051705 C193.304371,15.8859706 192.199547,17.8532625 191.534159,19.2721954" id="Fill-36" fill="#7DA9DC"></path>
        <path d="M167.386971,13.6808013 L167.369266,13.531376 L166.886971,13.5658588 L166.94273,14.031376 C167.093523,13.9087706 167.241468,13.7921861 167.386971,13.6808013" id="Fill-38" fill="#005CB9"></path>
        <path d="M128,21.9185929 C127.933952,21.8244953 127.865349,21.7333444 127.791242,21.6463189 C127.167915,21.2052979 126.408169,20.9617051 125.596134,21.0049232 C124.01079,21.0886091 122.727771,22.2254413 122.333646,23.7247162 L117.840035,44.0719897 L110.113618,44.4821687 L110,45 L118.387288,44.5548537 L122.8809,24.2073837 C123.274435,22.7083053 124.557846,21.571473 126.143584,21.4875906 C126.813694,21.4520339 127.447243,21.6144947 128,21.9185929" id="Fill-40" fill="#7DA9DC"></path>
        <path d="M178.748719,14 C180.138883,15.3413882 180.865421,17.5291356 180.099273,20.7412121 L175.447953,41.0536329 L167.119254,41.4719023 L167,42 L176.03702,41.5460564 L180.689399,21.2336356 C181.557219,17.5932689 180.509566,15.267234 178.748719,14" id="Fill-42" fill="#7DA9DC"></path>
        <path d="M169.626943,19.4867857 C169.761155,19.4795155 169.883294,19.4850172 170,19.4956277 C169.970823,19.3512073 169.928367,19.2203447 169.873434,19.10304 C169.649077,19.0232649 169.38347,18.9873072 169.066553,19.0040089 C167.066653,19.1071663 166.513305,21.7173441 166.513305,21.7173441 L162.024951,42.0719761 L154.113889,42.4820514 L154,43 L162.58514,42.5547529 L167.073897,22.2001209 C167.073897,22.2001209 167.627245,19.5899431 169.626943,19.4867857" id="Fill-44" fill="#7DA9DC"></path>
        <path d="M206.320803,12.0366542 L200.000352,40.9695866 C200.000352,40.9695866 197.662354,51.8771515 186.285502,52.4804272 C183.246893,52.6412197 181.276979,51.9069204 180,50.9115863 C181.235565,52.1454765 183.321641,53.1647067 186.847324,52.9777904 C198.224177,52.3747172 200.562376,41.4671524 200.562376,41.4671524 L207,12 L206.320803,12.0366542 Z" id="Fill-46" fill="#7DA9DC"></path>
        <polygon id="Fill-48" fill="#7DA9DC" points="157.325403 14.0361377 151.000682 43.0413351 143.115943 43.4650398 143 44 151.558934 43.5401575 158 14"></polygon>
        <path d="M223.986451,34.6641813 L224,34.5964345 L221.642105,31 C221.642105,31 221.596875,31.0503919 221.514985,31.1384209 L223.463227,34.1094522 C220.894926,37.6598858 216.962975,40.210636 212.263522,40.4713775 C210.205893,40.5851252 208.404097,40.0418963 207,38.8891554 C208.470447,40.3904577 210.477069,41.1151811 212.818626,40.985124 C217.498752,40.725428 221.41835,38.1939145 223.986451,34.6641813" id="Fill-50" fill="#7DA9DC"></path>
        <path d="M243.564768,16.3141512 C243.692768,16.3951512 243.820768,16.4736512 243.941768,16.5606512 C243.836268,16.4466512 243.720268,16.3456512 243.608268,16.2376512 L243.564768,16.3141512 Z" id="Fill-52" fill="#040201"></path>
        <path d="M246.88348,11 C247.048507,11.132814 247.20824,11.2698081 247.359687,11.4144024 L244,16.4033821 C244.205996,16.5861676 244.39519,16.7826335 244.552851,17 L248,11.8812464 C247.66028,11.5576667 247.286035,11.2639179 246.88348,11" id="Fill-54" fill="#7DA9DC"></path>
        <path d="M242.790846,14.6463083 C242.167906,14.2052946 241.408348,13.9617057 240.595715,14.0049231 C239.010353,14.0888041 237.727124,15.2254213 237.332995,16.7246716 L232.839531,37.0712191 L225.11303,37.481195 L225,38 L233.387183,37.5538787 L237.879861,17.2075276 C238.27399,15.7082773 239.557023,14.5714637 241.143367,14.4875827 C241.813092,14.4520265 242.44704,14.6144846 243,14.9185778 C242.933755,14.8244818 242.865544,14.7333324 242.790846,14.6463083" id="Fill-56" fill="#7DA9DC"></path>
        <polygon id="Fill-58" fill="#7DA9DC" points="145.158513 18.5088419 146 14 145.355577 14.0355299 144.613699 18.0100025 142.100783 18.1476554 136.804892 43.0413026 129.112916 43.4650217 129 44 137.349902 43.540142 142.64501 18.6464947"></polygon>
        <path d="M107.627217,36 C107.627217,36 107.582234,36.0506043 107.500427,36.1375935 L109.445866,39.1096556 C106.881207,42.6607398 102.95271,45.2106114 98.2586964,45.47137 C96.2027889,45.5861707 94.4032479,45.042488 93,43.8896717 C94.4687328,45.3912813 96.4736854,46.1150066 98.8122329,45.9851501 C103.506246,45.7254371 107.435341,43.1745199 110,39.6234358 L107.627217,36 Z" id="Fill-60" fill="#7DA9DC"></path>
        <path d="M49.8604725,46 C47.5955503,47.6264212 46.0033429,48.1340134 43.2481336,48.3060294 C41.7584779,48.3988021 40.2054934,47.9540247 39,46.86612 C40.2586079,48.4507452 42.1186346,49.0982212 43.887754,48.9880537 C46.435817,48.8290838 47.9896185,48.3809241 50,47.0284722 L49.8604725,46 Z" id="Fill-62" fill="#7DA9DC"></path>
        <path d="M33.1816192,30 C35.0054124,31.6144952 37.2011106,34.6363705 36.1595299,39.3803483 C33.1966104,51.5262814 22.309093,51.6381313 22.309093,51.6381313 L5.11849214,52.4916616 L5,53 L22.8808124,52.1119505 C22.8808124,52.1119505 33.7683298,52.0001006 36.7312493,39.8543604 C37.8847507,34.5995372 35.066404,31.4569411 33.1816192,30" id="Fill-64" fill="#7DA9DC"></path>
        <path d="M26.3376947,11.0106467 L23.1809403,11.1707061 L15,48 C15.2134267,47.9889821 15.4506371,47.977163 15.6978616,47.9643422 L23.7611355,11.6629039 L26.9185158,11.5028445 C26.9185158,11.5028445 27.9691677,11.3916643 29,11.8816585 C28.9328217,11.7786916 28.8608449,11.684539 28.7871992,11.5951942 C27.6555994,10.872022 26.3376947,11.0106467 26.3376947,11.0106467" id="Fill-66" fill="#7DA9DC"></path>
        <polygon id="Fill-68" fill="#7DA9DC" points="63.2130539 19.0409964 56.8413694 48.0927757 51 48.3952518 51.0987842 49 57.4927212 48.6683573 64 19"></polygon>
        <path d="M73.2886413,41.1820515 L74.4461906,43.9100053 C71.8977521,46.5723906 69.3709966,47.4135097 67.0459519,47.5301805 C65.801671,47.5919916 64.7873483,47.3019116 64,46.7553815 C64.841854,47.5972521 66.0415755,48.0690077 67.5997613,47.9917909 C69.924806,47.8751201 72.4515616,47.0341889 75,44.3716157 L73.5689278,41 C73.5689278,41 73.4589218,41.080035 73.2886413,41.1820515" id="Fill-70" fill="#7DA9DC"></path>
        <path d="M93,17 L92.3698168,17.0359577 L91.5930793,21.1849804 L87.3253058,21.4270817 C85.7722115,28.7148398 84.118052,36.7090841 84.0114671,38.1674121 C83.9859628,38.5182035 84.0046152,38.7870686 84.0514364,38.99975 C84.2050328,39.0034275 84.3692878,38.966244 84.5318298,38.9074042 C84.5331621,38.8318114 84.534875,38.7541756 84.5413463,38.6693891 C84.6479312,37.2110611 86.3020907,29.2170211 87.855185,21.9290587 L92.1229585,21.6869574 L93,17 Z" id="Fill-72" fill="#7DA9DC"></path>
        <path d="M21,32.459898 C21.8576493,32.4231746 23.5802592,32.3715828 25,33 C24.9251135,32.9107891 24.8462391,32.826415 24.7642628,32.7472358 C23.6077324,32.0991134 22.1514346,31.9943175 21.1240722,32.0002291 L21,32.459898 Z" id="Fill-74" fill="#7DA9DC"></path>
        <path d="M87.2890392,40.1827991 L88.4463895,42.9106947 C85.89815,45.573211 83.3709966,46.4141242 81.0463497,46.5298531 C79.8020688,46.5926023 78.7877462,46.3025285 78,45.7550707 C78.8422518,46.5978627 80.0415755,47.0696082 81.5997613,46.9916415 C83.9246071,46.8757248 86.4519594,46.0348115 89,43.3722952 L87.5693256,40 C87.5693256,40 87.4593197,40.0798454 87.2890392,40.1827991" id="Fill-76" fill="#7DA9DC"></path>
        <path d="M156,7.41749703 C155.365235,5.60360075 153.466705,2.71841818 147.824374,3.02218556 C136.632522,3.62465753 134.332543,14.5325391 134.332543,14.5325391 L128,44 L136.479693,43.5411087 L141.857307,18.7113657 L144.409681,18.5734553 L145.264249,14.076483 L142.832706,14.207508 L142.861722,14.0746604 C142.861722,14.0746604 143.917609,7.87436317 147.692413,7.67083902 C149.948868,7.54973709 150.86087,9.29275432 151.170701,11.2129692 L156,7.41749703 Z" id="Fill-78" fill="#005CB9"></path>
        <path d="M128.967887,21.8184795 L132,16.4210089 C130.6364,14.8610718 128.647993,13.9154125 126.474533,14.0059714 C123.076972,14.199511 121.970502,16.3564957 121.970502,16.3564957 L121.673688,14.5244812 L121.674296,14.5238801 L121.673688,14.5230787 L115.451338,14.8474479 L109,44 L117.638565,43.5462038 L122.26691,22.7947926 C122.672852,21.2657096 123.99434,20.1062752 125.627218,20.0207251 C127.024428,19.9475968 128.279507,20.680082 128.967887,21.8184795" id="Fill-80" fill="#005CB9"></path>
        <path d="M28.5116671,17.4747922 C26.380329,25.584347 20.8704865,26.0049221 20.8704865,26.0049221 L19.8855813,30.6645043 C21.5947047,30.5718317 27.1848192,30.3690472 24.8787715,39.0518739 C22.5729206,47.7349033 18.150094,47.9303876 17.0416329,47.9904118 C15.9327784,48.0506388 14.3548838,48.1368222 14.3548838,48.1368222 L22.2124839,10.1650194 L25.1896286,10.0027918 C25.1896286,10.0027918 30.643202,9.36523729 28.5116671,17.4747922 M27.9190713,5.01023741 C23.6237354,5.24445351 14.016089,5.88221075 14.016089,5.88221075 L4,53 L21.1305834,52.0675969 C21.1305834,52.0675969 31.5616075,51.9489679 34.4002437,39.1769919 C36.0117816,31.1211749 29.5325767,27.7831393 29.5325767,27.7831393 C29.5325767,27.7831393 36.582342,24.3386418 37.8476088,16.4426191 C39.1122854,8.54639349 32.2144072,4.77642689 27.9190713,5.01023741" id="Fill-82" fill="#005CB9"></path>
        <polygon id="Fill-84" fill="#005CB9" points="148.391118 13.4590242 142 43 150.558934 42.5401638 157 13"></polygon>
        <path d="M243.967765,15.8183229 L247,10.4209604 C245.636031,8.86105453 243.648081,7.91541418 241.474072,8.00597127 C238.0766,8.19950698 236.969754,10.3564485 236.969754,10.3564485 L236.672949,8.52447068 L236.673961,8.52386963 L236.672949,8.52306824 L230.450763,8.84743089 L224,38 L232.638539,37.5460125 L237.26656,16.7946164 C237.672491,15.265564 238.993944,14.1057522 240.626982,14.0206045 C242.024154,13.9474776 243.278998,14.6799482 243.967765,15.8183229" id="Fill-86" fill="#005CB9"></path>
        <path d="M165.729658,14.2368942 L165.435582,12.3969024 L159.272216,12.7237616 L153,42 L161.552858,41.544128 L166.024937,20.6945772 C166.024937,20.6945772 166.576204,18.0209334 168.567781,17.9152677 C170.095894,17.834358 170.522674,18.9278469 170.086672,20.9266392 L165.750506,41.3235383 L174.303765,40.8676664 L178.705883,20.4693583 C180.109309,14.2207928 176.222976,11.8232887 172.707095,12.0100653 C169.809435,12.1638341 168.22359,12.6368138 165.729658,14.2368942" id="Fill-88" fill="#005CB9"></path>
        <path d="M50.2701683,45.7627669 L50.5640385,47.6031255 L56.7274949,47.2758701 L63,18 L54.4468938,18.4558631 L49.9754963,39.3050083 C49.9754963,39.3050083 49.4238382,41.9781975 47.4314944,42.0840624 C45.9044117,42.1657756 45.4778389,41.0717042 45.9136328,39.0735546 L50.2493208,18.6764485 L41.6962145,19.1325129 L37.2941752,39.5302228 C35.8905741,45.7792705 39.7770376,48.1765268 43.2928558,47.989955 C46.190865,47.8355854 47.7768821,47.3620111 50.2701683,45.7627669" id="Fill-90" fill="#005CB9"></path>
        <path d="M103.467194,19.6103155 C105.039607,19.4678056 103.01618,25.9063916 103.01618,25.9063916 L98.5757035,26.1305913 C99.9277044,21.5058762 101.894572,19.7534217 103.467194,19.6103155 L103.467194,19.6103155 Z M109.660364,29.8597001 C109.660364,29.8597001 109.664107,29.8479733 109.665146,29.8453895 C109.835446,29.3349774 114.693874,14.5477353 104.746625,15.0106441 C95.779794,15.6874171 90.4006937,21.1268436 88.4964145,30.1139123 C86.5490924,39.3053049 90.5406348,44.3018973 96.8040875,43.9858711 C101.70743,43.7380191 105.812089,41.3143568 108.491139,37.9382433 L106.01254,34.4939555 C106.01254,34.4939555 101.262862,39.3508206 98.2228359,37.8817958 C95.1830173,36.4139636 97.646021,30.4671064 97.646021,30.4671064 L109.660364,29.8597001 Z" id="Fill-92" fill="#005CB9"></path>
        <path d="M219.466586,14.6101082 C221.039215,14.4675985 219.015362,20.9059742 219.015362,20.9059742 L214.575697,21.1307698 C215.927704,16.5054668 217.894789,14.7530154 219.466586,14.6101082 L219.466586,14.6101082 Z M225.660409,24.8594744 C225.660409,24.8594744 225.66436,24.8485427 225.6654,24.844965 C225.835285,24.3353489 230.693944,9.54773581 220.746647,10.0106438 C211.779566,10.6872168 206.400232,16.1264348 204.496152,25.1140837 C202.549445,34.306056 206.541006,39.3024407 212.803241,38.9858188 C217.707646,38.7379673 221.811285,36.3139118 224.491387,32.9380031 L222.012776,29.4937215 C222.012776,29.4937215 217.263076,34.3503791 214.222204,32.8825495 C211.182163,31.4137261 213.645802,25.466482 213.645802,25.466482 L225.660409,24.8594744 Z" id="Fill-94" fill="#005CB9"></path>
        <path d="M191.495259,34.6628409 C191.152036,34.9163851 190.754358,35.0808243 190.276986,35.1069482 C189.016183,35.1743845 188.556101,33.5585466 188.379024,32.5688738 C188.006786,30.4953603 188.248254,28.2952773 188.643149,26.2450526 C189.101641,23.8612918 189.864999,21.5330191 190.942564,19.3647303 C191.687638,17.8647289 192.935722,15.7600287 194.875618,16.0287612 C195.131594,16.0644032 195.324967,16.1628237 195.471041,16.3039741 L191.495259,34.6628409 Z M196.520186,11.4586882 L196.517603,11.4722564 C196.42499,11.473674 196.339731,11.4665861 196.244336,11.4716489 C187.320737,11.9522083 181.987962,17.5378756 180.127165,26.9028094 C178.265573,36.2677431 182.080575,41.3584729 188.066805,41.0358723 C188.789421,40.9967876 189.490972,40.8997847 190.174436,40.7600519 L190.138266,40.9248961 C190.138266,40.9248961 189.082562,47.1253879 185.307507,47.3289118 C183.051814,47.450216 182.1396,45.7076061 181.829169,43.7873937 L177,47.5824559 C177.634575,49.3961474 179.53353,52.2819338 185.175742,51.9777618 C196.367952,51.3754931 198.667963,40.4668155 198.667963,40.4668155 L205,11 L196.520186,11.4586882 Z" id="Fill-96" fill="#005CB9"></path>
        <path d="M64.7108742,22.6679348 L61.2364839,38.8605379 C60.3440204,43.3305746 61.9785322,47.2110385 66.1241753,46.9910818 C68.4682456,46.8670036 71.0156773,45.9654227 73.5849692,43.1106178 L72.1423873,39.4952299 C72.1423873,39.4952299 69.6053844,41.4637622 69.8197762,38.7159143 C69.9320862,37.277937 71.6756991,29.3965566 73.3116147,22.2117058 L77.9774939,21.9637509 L74.5033041,38.1557498 C73.6110412,42.6267936 75.2451518,46.5072575 79.3909955,46.2873008 C81.7350658,46.1622155 84.2828986,45.2606346 86.8515889,42.4058297 L85.4094081,38.7904418 C85.4094081,38.7904418 82.8728063,40.7591755 83.0869976,38.0123347 C83.1993076,36.5733503 84.9423188,28.692977 86.578836,21.5069177 L91.0758491,21.2686312 L92,16.6477268 L87.6389623,16.8791648 C88.6704094,12.4000639 89.4692143,9 89.4692143,9 L80.6586947,9.46730737 L78.9696325,17.3398251 L74.371741,17.5841543 C75.4035892,13.1048521 76.2017924,9.70418386 76.2017924,9.70418386 L67.3920751,10.1714912 L65.7024111,18.0446132 L64.7108742,22.6679348 Z" id="Fill-98" fill="#005CB9"></path>
        <path d="M244.419777,37.8056175 L244.846758,37.8056175 C245.344903,37.8056175 245.747872,37.6344182 245.747872,37.2229157 C245.747872,36.8609006 245.486357,36.6183683 244.918358,36.6183683 C244.679109,36.6183683 244.513643,36.642889 244.419777,36.6651806 L244.419777,37.8056175 Z M244.393582,40.0597414 L243.492905,40.0597414 L243.492905,36.0829247 C243.849596,36.0115916 244.348177,35.9625502 244.988212,35.9625502 C245.723859,35.9625502 246.056974,36.0829247 246.342065,36.2541239 C246.555556,36.4226482 246.722768,36.7382969 246.722768,37.1275078 C246.722768,37.5630852 246.39009,37.9032546 245.913338,38.047704 L245.913338,38.0962996 C246.294041,38.2416407 246.507531,38.5323228 246.627156,39.0659831 C246.744597,39.6723139 246.816634,39.9148462 246.9105,40.0597414 L245.939096,40.0597414 C245.819472,39.9148462 245.747872,39.5506019 245.629993,39.0905038 C245.558393,38.6522514 245.320891,38.4609897 244.822746,38.4609897 L244.393582,38.4609897 L244.393582,40.0597414 Z M241.997162,37.9745876 C241.997162,39.7440927 243.279415,41.1511369 245.0358,41.1511369 C246.744597,41.1511369 248.003274,39.7440927 248.003274,37.9991083 C248.003274,36.2296032 246.744597,34.8002675 245.011788,34.8002675 C243.279415,34.8002675 241.997162,36.2296032 241.997162,37.9745876 L241.997162,37.9745876 Z M249,37.9745876 C249,40.2304949 247.267191,42 245.011788,42 C242.780834,42 241,40.2304949 241,37.9745876 C241,35.7695051 242.780834,34 245.011788,34 C247.267191,34 249,35.7695051 249,37.9745876 L249,37.9745876 Z" id="Fill-100" fill="#005CB9"></path>
    </g>
</svg>